<mxfile host="app.diagrams.net" modified="2020-11-23T05:01:46.003Z" agent="5.0 (Windows NT 10.0; Win64; x64) AppleWebKit/537.36 (KHTML, like Gecko) Chrome/87.0.4280.66 Safari/537.36" etag="RiGPjWv_-9YXxRSsU9bG" version="13.10.1" type="github">
  <diagram id="wFE0QG_FPsp0jaGvCLVb" name="Page-1">
    <mxGraphModel dx="868" dy="436" grid="1" gridSize="10" guides="1" tooltips="1" connect="1" arrows="1" fold="1" page="1" pageScale="1" pageWidth="850" pageHeight="1100" math="0" shadow="0">
      <root>
        <mxCell id="0" />
        <mxCell id="1" parent="0" />
        <mxCell id="CwVmDufWgFMHMGyQT35G-1" value="" style="ellipse;shape=cloud;whiteSpace=wrap;html=1;" vertex="1" parent="1">
          <mxGeometry x="200" y="160" width="460" height="250" as="geometry" />
        </mxCell>
        <mxCell id="CwVmDufWgFMHMGyQT35G-4" value="" style="edgeStyle=orthogonalEdgeStyle;rounded=0;orthogonalLoop=1;jettySize=auto;html=1;fontSize=14;" edge="1" parent="1" source="CwVmDufWgFMHMGyQT35G-2" target="CwVmDufWgFMHMGyQT35G-3">
          <mxGeometry relative="1" as="geometry" />
        </mxCell>
        <mxCell id="CwVmDufWgFMHMGyQT35G-7" value="" style="edgeStyle=orthogonalEdgeStyle;rounded=0;orthogonalLoop=1;jettySize=auto;html=1;fontSize=14;" edge="1" parent="1" source="CwVmDufWgFMHMGyQT35G-2">
          <mxGeometry relative="1" as="geometry">
            <mxPoint x="524" y="12" as="targetPoint" />
          </mxGeometry>
        </mxCell>
        <mxCell id="CwVmDufWgFMHMGyQT35G-10" value="" style="edgeStyle=orthogonalEdgeStyle;rounded=0;orthogonalLoop=1;jettySize=auto;html=1;fontSize=14;" edge="1" parent="1" source="CwVmDufWgFMHMGyQT35G-2" target="CwVmDufWgFMHMGyQT35G-9">
          <mxGeometry relative="1" as="geometry" />
        </mxCell>
        <mxCell id="CwVmDufWgFMHMGyQT35G-2" value="网关" style="aspect=fixed;html=1;points=[];align=center;image;fontSize=14;image=img/lib/azure2/networking/Application_Gateways.svg;" vertex="1" parent="1">
          <mxGeometry x="400" y="70" width="64" height="64" as="geometry" />
        </mxCell>
        <mxCell id="CwVmDufWgFMHMGyQT35G-3" value="流媒体服务器" style="aspect=fixed;html=1;points=[];align=center;image;fontSize=12;image=img/lib/azure2/web/Azure_Media_Service.svg;" vertex="1" parent="1">
          <mxGeometry x="280" y="232" width="68" height="68" as="geometry" />
        </mxCell>
        <mxCell id="CwVmDufWgFMHMGyQT35G-9" value="静态资源服务器" style="aspect=fixed;html=1;points=[];align=center;image;fontSize=12;image=img/lib/azure2/databases/Cache_Redis.svg;" vertex="1" parent="1">
          <mxGeometry x="400" y="280" width="64" height="52" as="geometry" />
        </mxCell>
      </root>
    </mxGraphModel>
  </diagram>
</mxfile>
